<?xml version="1.0" encoding="iso-8859-1"?>
<!-- Generator: Adobe Illustrator 19.0.0, SVG Export Plug-In . SVG Version: 6.00 Build 0)  -->
<svg version="1.1" id="Capa_1" xmlns="http://www.w3.org/2000/svg" xmlns:xlink="http://www.w3.org/1999/xlink" x="0px" y="0px"
	 viewBox="0 0 480 480" style="enable-background:new 0 0 480 480;" xml:space="preserve">
<g>
	<path style="fill:#FFDE17;" d="M304,26.08V24c0-8.837-7.163-16-16-16h-48h-48c-8.837,0-16,7.163-16,16v2.08
		C90.143,53.823,31.975,133.772,32,224h416C448.025,133.772,389.857,53.823,304,26.08z"/>
	<path style="fill:#FFDE17;" d="M456,224H24c-8.837,0-16,7.163-16,16v16c0,8.837,7.163,16,16,16h432c8.837,0,16-7.163,16-16v-16
		C472,231.163,464.837,224,456,224z"/>
</g>
<path style="fill:#E6E7E8;" d="M432,360c0-17.673-14.327-32-32-32H80c-17.673,0-32,14.327-32,32v64c0,26.51,21.49,48,48,48l0,0h48
	c33.828,0.024,65.167-17.771,82.48-46.832c4.558-7.467,14.306-9.825,21.773-5.267c2.149,1.312,3.955,3.118,5.267,5.267
	C270.833,454.229,302.172,472.024,336,472h48c26.51,0,48-21.49,48-48l0,0L432,360z M96,360c-8.837,0-16,7.163-16,16
	C80,367.163,87.163,360,96,360z"/>
<g>
	<path style="fill:#A7A9AC;" d="M432,384h40v40h-40V384z"/>
	<path style="fill:#A7A9AC;" d="M432,360h40v24h-40V360z"/>
	<path style="fill:#A7A9AC;" d="M8,392v40h40v-8v-32H8z"/>
	<path style="fill:#A7A9AC;" d="M8,368h40v24H8V368z"/>
</g>
<g>
	<path style="fill:#231F20;" d="M456,216h-0.32c-3.034-88.692-60.255-166.404-144.048-195.632C309.844,8.686,299.818,0.045,288,0
		h-96c-11.818,0.045-21.844,8.686-23.632,20.368C84.575,49.596,27.354,127.308,24.32,216H24c-13.255,0-24,10.745-24,24v16
		c0,13.255,10.745,24,24,24h432c13.255,0,24-10.745,24-24v-16C480,226.745,469.255,216,456,216z M168,37.528V176
		c0,4.418,3.582,8,8,8s8-3.582,8-8V24c0-4.418,3.582-8,8-8h40v176c0,4.418,3.582,8,8,8s8-3.582,8-8V16h40c4.418,0,8,3.582,8,8v152
		c0,4.418,3.582,8,8,8s8-3.582,8-8V37.528C386.472,66.066,436.719,136.302,439.68,216H40.32
		C43.281,136.302,93.528,66.066,168,37.528z M464,256c0,4.418-3.582,8-8,8H24c-4.418,0-8-3.582-8-8v-16c0-4.418,3.582-8,8-8h432
		c4.418,0,8,3.582,8,8V256z"/>
	<path style="fill:#231F20;" d="M200,352H96c-13.255,0-24,10.745-24,24v32c0,4.418,3.582,8,8,8s8-3.582,8-8v-32c0-4.418,3.582-8,8-8
		h104c4.418,0,8-3.582,8-8S204.418,352,200,352z"/>
	<path style="fill:#231F20;" d="M472,352h-32.8c-3.827-18.611-20.199-31.976-39.2-32H80c-22.08,0.026-39.974,17.92-40,40H8
		c-4.418,0-8,3.582-8,8v64c0,4.418,3.582,8,8,8h34.4c7.089,23.696,28.867,39.947,53.6,40h48
		c36.608-0.104,70.495-19.345,89.344-50.728c2.296-3.676,7.138-4.794,10.814-2.498c1.012,0.632,1.866,1.486,2.498,2.498
		C265.505,460.655,299.392,479.896,336,480h48c27.813-0.033,51.387-20.473,55.36-48H472c4.418,0,8-3.582,8-8v-64
		C480,355.582,476.418,352,472,352z M464,376h-24v-8h24V376z M40,376v8H16v-8H40z M16,424v-24h24v24H16z M384,464h-48
		c-30.983-0.091-59.663-16.376-75.616-42.936c-6.813-11.267-21.47-14.877-32.736-8.064c-3.301,1.996-6.068,4.763-8.064,8.064
		C203.637,447.614,174.971,463.898,144,464H96c-22.08-0.026-39.974-17.92-40-40v-64c0-13.255,10.745-24,24-24h320
		c13.255,0,24,10.745,24,24v64C423.974,446.08,406.08,463.974,384,464z M440,416v-24h24v24H440z"/>
	<path style="fill:#231F20;" d="M248,352h-16c-4.418,0-8,3.582-8,8s3.582,8,8,8h16c4.418,0,8-3.582,8-8S252.418,352,248,352z"/>
</g>
<g>
</g>
<g>
</g>
<g>
</g>
<g>
</g>
<g>
</g>
<g>
</g>
<g>
</g>
<g>
</g>
<g>
</g>
<g>
</g>
<g>
</g>
<g>
</g>
<g>
</g>
<g>
</g>
<g>
</g>
</svg>
